# xmcd
#
# Track frame offsets:
#	183
#	39790
#	75603
#	109488
#	120088
#	152785
#	168978
#
# Disc length: 2851 seconds
#
# Revision: 0
# Processed by: cddbd v1.5.1PL0 Copyright (c) Steve Scherf et al.
# Submitted via: dBpowerAMP V4.0
#
DISCID=460b2107
DTITLE=Zohar Argov - Ben Bli Bait
DYEAR=1998
DGENRE=Israeli
TTITLE0=String-Ben Bli Bait-En Medina Lahava-Ima Sheli
TTITLE1=String-Halom-Ten Lazman Lalechet
TTITLE2=String-Einaich Hachumot-Zachrini-Linda
TTITLE3=Kmo Shikor
TTITLE4=String-Habibi Diali-Durbaha
TTITLE5=Nagen li shir
TTITLE6=String-Galab Yachab(ashlaiot)-Eshal Eloaii-Haperach Begani
EXTD=
EXTT0=
EXTT1=
EXTT2=
EXTT3=
EXTT4=
EXTT5=
EXTT6=
PLAYORDER=
